<?xml version="1.0" encoding="utf-8"?>
<!-- Generator: Adobe Illustrator 25.2.0, SVG Export Plug-In . SVG Version: 6.00 Build 0)  -->
<svg version="1.1" xmlns="http://www.w3.org/2000/svg" xmlns:xlink="http://www.w3.org/1999/xlink"  width="100%"
	 viewBox="0 0 451.73 451.73" style="enable-background:new 0 0 451.73 451.73;" xml:space="preserve">
<style type="text/css">
	.st0{fill:#F3E3BB;}
	.st1{fill:#161616;}
	.st2{fill:#141414;}
	.st3{fill:#D83130;}
	.st4{fill:#070706;}
	.st5{fill:#DC5034;}
	.st6{fill:#F3E5BE;}
	.st7{fill:#FFFFFF;}
	.st8{fill:#121212;}
	.st9{fill:#E8B42F;}
	.st10{fill:#080808;}
	.st11{display:none;}
	.st12{display:inline;}
	.st13{display:inline;fill:#F3E5BE;}
	.st14{display:inline;fill:#161616;}
	.st15{display:inline;fill:#DC5034;}
	.st16{fill:#DC4D36;}
</style>
<g id="Layer_2">
</g>
<g id="Layer_3">
</g>
<g id="TEXTOS_CON_QR">
	<g>
		<g>
			<path class="st4" d="M47.24,0h357.19c11.86,0.44,23.54,5.2,32.11,13.46c9.26,8.7,14.72,21.13,15.19,33.81v357.14
				c-0.47,13.13-6.33,25.97-16.15,34.73c-8.44,7.72-19.67,12.12-31.07,12.59H47.32c-13.11-0.47-25.96-6.33-34.71-16.14
				C4.87,427.16,0.46,415.91,0,404.5V47.32c0.43-12.08,5.38-23.96,13.9-32.56C22.56,5.76,34.79,0.47,47.24,0z M233.23,284.92
				c-0.14,13.52-6.61,26.77-17.14,35.23c-9.94,8.2-23.44,11.82-36.16,9.83c-13.45-2.02-25.76-10.37-32.71-22.05
				c-5.76-9.48-7.83-21.06-5.84-31.96c2.52-14.56,12.53-27.55,25.95-33.73c10.3-4.95,22.44-5.69,33.33-2.32
				c-0.02-18.75,0.01-37.51-0.01-56.26c-11.29-1.53-22.84-1.25-34.01,1.07c-23.49,4.72-45.01,18.22-59.7,37.1
				c-14.37,18.3-22.14,41.66-21.4,64.93c0.47,22.6,8.91,44.89,23.42,62.2c15.53,18.77,37.99,31.71,62.09,35.46
				c24.32,3.93,50.04-1.4,70.71-14.85c19.97-12.78,35.22-32.78,42.18-55.46c3.11-9.97,4.57-20.43,4.53-30.88
				c0.01-37.04-0.01-74.08,0-111.11c22.19,15.93,49.39,24.74,76.72,24.65c-0.01-18.38,0.03-36.76-0.02-55.14
				c-22.89,0.05-45.47-10.77-59.71-28.68c-10.93-13.45-16.97-30.69-17.01-48c-18.38-0.02-36.75-0.01-55.12-0.01
				C233.28,138.26,233.28,211.6,233.23,284.92z"/>
		</g>
	</g>
</g>
<g id="TEXTOS_SIN_QR" class="st11">
</g>
<g id="TEXTOS_CON_QR_copia" class="st11">
</g>
<g id="TEXTOS_SIN_QR_copia" class="st11">
</g>
</svg>
