<?xml version="1.0" encoding="utf-8"?>
<!-- Generator: Adobe Illustrator 25.2.0, SVG Export Plug-In . SVG Version: 6.00 Build 0)  -->
<svg version="1.1" xmlns="http://www.w3.org/2000/svg" xmlns:xlink="http://www.w3.org/1999/xlink"  width="100%"
	 viewBox="0 0 745.26 431.18" style="enable-background:new 0 0 745.26 431.18;" xml:space="preserve">
<style type="text/css">
	.st0{fill:#F3E3BB;}
	.st1{fill:#161616;}
	.st2{fill:#141414;}
	.st3{fill:#D83130;}
	.st4{fill:#070706;}
	.st5{fill:#DC5034;}
	.st6{fill:#F3E5BE;}
	.st7{fill:#FFFFFF;}
	.st8{fill:#121212;}
	.st9{fill:#E8B42F;}
	.st10{fill:#080808;}
	.st11{display:none;}
	.st12{display:inline;}
	.st13{display:inline;fill:#F3E5BE;}
	.st14{display:inline;fill:#161616;}
	.st15{display:inline;fill:#DC5034;}
	.st16{fill:#DC4D36;}
</style>
<g id="Layer_2">
</g>
<g id="Layer_3">
</g>
<g id="TEXTOS_CON_QR">
	<g>
		<g>
			<path class="st2" d="M12.43,288.68H0v-50.34h12.43V288.68z"/>
			<path class="st2" d="M55.21,288.68H44.33v-22.96c0-3.49-0.99-6.42-5.37-6.42c-5.01,0-5.72,3.56-5.72,8.56v20.82H22.36v-37.22
				h11.02v3.28c1.77-2.14,5.23-4.21,10.39-4.21c7.49,0,11.45,3.85,11.45,11.41V288.68z"/>
			<path class="st2" d="M84.14,259.09h-7.21v17.82c0,2.5,1.13,3.07,2.83,3.07c0.78,0,3.81-0.07,3.81-0.07v8.48
				c-0.7,0.14-2.89,0.57-6.85,0.57c-5.93,0-10.53-1.85-10.53-10.55v-19.39h-5.37v-6.7h5.37v-11.62h10.74v11.69h7.21V259.09z"/>
			<path class="st2" d="M124.73,272.35H98.38v0.43c0,4.99,3.39,8.84,8.41,8.84c5.15,0,8.19-3.56,9.32-6.63l8.19,4.28
				c-4.17,7.06-10.74,10.77-18.37,10.77c-11.23,0-18.65-7.2-18.65-19.25c0-9.34,4.52-20.46,18.93-20.46
				c13.85,0,18.51,11.19,18.51,21.53V272.35z M98.38,265.5h15.12c-0.14-4.14-2.9-7.34-7.35-7.34
				C100.99,258.16,98.87,262.51,98.38,265.5z"/>
			<path class="st2" d="M130.95,251.46h10.53v3.85c0.92-0.78,1.91-1.78,4.31-2.78c2.97-1.21,5.01-1.43,6.36-1.5v9.7l-3.6,0.57
				c-5.72,0.93-6.78,2.42-6.78,6.42v20.96h-10.81V251.46z"/>
			<path class="st2" d="M190.5,288.68h-10.88v-22.96c0-3.49-0.99-6.42-5.37-6.42c-5.02,0-5.73,3.56-5.73,8.56v20.82h-10.88v-37.22
				h11.02v3.28c1.77-2.14,5.23-4.21,10.38-4.21c7.49,0,11.45,3.85,11.45,11.41V288.68z"/>
			<path class="st2" d="M232.51,288.68h-10.67v-3.35c-2.9,1.92-5.65,4.35-11.31,4.35c-8.41,0-12.08-5.99-12.08-11.34
				c0-4.63,3.18-8.77,7.77-10.69c2.54-1.07,6.43-1.85,14.55-3.42v-2.07c0-1.28-0.21-4.49-4.17-4.49c-4.59,0-5.44,2.71-5.72,4.35H200
				c0-8.2,7.49-11.55,15.54-11.55c6.36,0,15.89,1.71,15.89,10.69v21.75C231.44,286.11,231.58,287.32,232.51,288.68z M220.78,270.85
				l-6.99,2.35c-3.75,1.21-4.66,2.99-4.66,4.63c0,1.28,1.06,3.78,4.17,3.78c4.24,0,7.49-3.85,7.49-9.13V270.85z"/>
			<path class="st2" d="M260.62,259.09h-7.21v17.82c0,2.5,1.13,3.07,2.83,3.07c0.78,0,3.82-0.07,3.82-0.07v8.48
				c-0.71,0.14-2.9,0.57-6.86,0.57c-5.93,0-10.53-1.85-10.53-10.55v-19.39h-5.37v-6.7h5.37v-11.62h10.74v11.69h7.21V259.09z"/>
			<path class="st2" d="M277.19,246.82h-10.81v-8.48h10.81V246.82z M277.19,288.68h-10.81v-37.22h10.81V288.68z"/>
			<path class="st2" d="M324.03,270.07c0,12.05-7.49,19.75-19.86,19.75c-9.61,0-19.78-5.28-19.78-19.96
				c0-9.41,5.65-19.54,19.43-19.54C319.3,250.32,324.03,261.16,324.03,270.07z M313.01,270.42c0-7.91-3.32-11.41-9.26-11.41
				c-4.1,0-8.41,3.14-8.41,10.91c0,6.2,2.61,11.12,8.97,11.12C310.32,281.05,313.01,275.99,313.01,270.42z"/>
			<path class="st2" d="M364.09,288.68h-10.88v-22.96c0-3.49-0.99-6.42-5.37-6.42c-5.01,0-5.72,3.56-5.72,8.56v20.82h-10.88v-37.22
				h11.02v3.28c1.76-2.14,5.23-4.21,10.39-4.21c7.49,0,11.44,3.85,11.44,11.41V288.68z"/>
			<path class="st2" d="M406.09,288.68h-10.67v-3.35c-2.89,1.92-5.65,4.35-11.3,4.35c-8.41,0-12.08-5.99-12.08-11.34
				c0-4.63,3.18-8.77,7.77-10.69c2.55-1.07,6.43-1.85,14.56-3.42v-2.07c0-1.28-0.21-4.49-4.17-4.49c-4.59,0-5.44,2.71-5.72,4.35
				h-10.88c0-8.2,7.49-11.55,15.54-11.55c6.36,0,15.9,1.71,15.9,10.69v21.75C405.03,286.11,405.17,287.32,406.09,288.68z
				 M394.36,270.85l-7,2.35c-3.74,1.21-4.66,2.99-4.66,4.63c0,1.28,1.06,3.78,4.17,3.78c4.24,0,7.49-3.85,7.49-9.13V270.85z"/>
			<path class="st2" d="M425.8,288.68h-10.81v-50.34h10.81V288.68z"/>
			<path class="st2" d="M0,302.93h24.72c11.8,0,18.02,5.63,18.02,17.18c0,12.76-11.09,16.68-20.14,16.68H12.5v16.47H0V302.93z
				 M12.5,312.19v15.26h8.19c5.65,0,9.61-1.35,9.61-7.91c0-7.27-5.93-7.34-9.82-7.34H12.5z"/>
			<path class="st2" d="M47.26,316.04h10.53v3.85c0.92-0.78,1.91-1.78,4.31-2.78c2.97-1.21,5.02-1.43,6.36-1.5v9.7l-3.6,0.57
				c-5.73,0.93-6.78,2.42-6.78,6.42v20.96H47.26V316.04z"/>
			<path class="st2" d="M110.91,334.65c0,12.05-7.49,19.75-19.86,19.75c-9.61,0-19.78-5.28-19.78-19.96
				c0-9.41,5.65-19.54,19.43-19.54C106.18,314.9,110.91,325.74,110.91,334.65z M99.89,335.01c0-7.91-3.32-11.41-9.26-11.41
				c-4.1,0-8.41,3.14-8.41,10.91c0,6.2,2.61,11.12,8.97,11.12C97.21,345.63,99.89,340.57,99.89,335.01z"/>
			<path class="st2" d="M151.04,353.26h-9.89v-3.49c-4.03,4.14-7.84,4.49-9.82,4.49c-8.69,0-15.97-6.77-15.97-19.32
				c0-11.05,5.37-19.89,15.4-19.89c5.16,0,8.34,2.64,9.75,3.78v-15.9h10.53V353.26z M126.38,334.87c0,3.28,0.71,11.26,7,11.26
				c7.06,0,7.35-9.41,7.35-11.19c0-4.63-0.85-11.69-6.78-11.69C128.15,323.25,126.38,329.59,126.38,334.87z"/>
			<path class="st2" d="M193.54,353.26h-10.88v-3.49c-0.99,1.43-4.66,4.56-10.74,4.56c-8.13,0-11.59-4.14-11.59-13.33v-24.95h10.95
				v23.88c0,2.5,0.85,5.49,5.23,5.49c4.38,0,6.22-2.71,6.22-6.13v-23.24h10.81V353.26z"/>
			<path class="st2" d="M227.27,340.21l8.19,4.28c-4.17,7.34-10.74,9.98-16.39,9.98c-8.62,0-18.3-5.56-18.3-19.54
				c0-14.9,10.17-19.96,18.51-19.96c3.32,0,10.6,0.71,15.76,8.98l-8.06,4.63c-0.98-2.07-2.96-5.2-7.21-5.2
				c-5.79,0-7.84,6.7-7.84,11.19c0,4.71,2.19,11.19,8.19,11.19C224.37,345.78,226.49,342.57,227.27,340.21z"/>
			<path class="st2" d="M260.62,323.67h-7.21v17.82c0,2.5,1.13,3.07,2.83,3.07c0.78,0,3.82-0.07,3.82-0.07v8.48
				c-0.71,0.14-2.9,0.57-6.86,0.57c-5.93,0-10.53-1.85-10.53-10.55V323.6h-5.37v-6.7h5.37v-11.62h10.74v11.69h7.21V323.67z"/>
			<path class="st2" d="M277.19,311.41h-10.81v-8.48h10.81V311.41z M277.19,353.26h-10.81v-37.22h10.81V353.26z"/>
			<path class="st2" d="M324.03,334.65c0,12.05-7.49,19.75-19.86,19.75c-9.61,0-19.78-5.28-19.78-19.96
				c0-9.41,5.65-19.54,19.43-19.54C319.3,314.9,324.03,325.74,324.03,334.65z M313.01,335.01c0-7.91-3.32-11.41-9.26-11.41
				c-4.1,0-8.41,3.14-8.41,10.91c0,6.2,2.61,11.12,8.97,11.12C310.32,345.63,313.01,340.57,313.01,335.01z"/>
			<path class="st2" d="M364.09,353.26h-10.88V330.3c0-3.49-0.99-6.42-5.37-6.42c-5.01,0-5.72,3.56-5.72,8.56v20.82h-10.88v-37.22
				h11.02v3.28c1.76-2.14,5.23-4.21,10.39-4.21c7.49,0,11.44,3.85,11.44,11.41V353.26z"/>
			<path class="st2" d="M0,417.85v-50.34h17.1c19.28,0,27.55,8.63,27.55,25.17c0,11.98-5.15,25.17-25.01,25.17H0z M12.57,378.13
				v29.59h4.03c10.74,0,15.54-3.78,15.54-15.19c0-7.84-2.54-14.4-13.42-14.4H12.57z"/>
			<path class="st2" d="M86.44,401.52H60.09v0.43c0,4.99,3.39,8.84,8.4,8.84c5.16,0,8.2-3.56,9.33-6.63l8.19,4.28
				c-4.17,7.06-10.74,10.77-18.37,10.77c-11.23,0-18.65-7.2-18.65-19.25c0-9.34,4.52-20.46,18.93-20.46
				c13.85,0,18.51,11.19,18.51,21.53V401.52z M60.09,394.68h15.12c-0.14-4.14-2.9-7.34-7.35-7.34
				C62.7,387.33,60.58,391.68,60.09,394.68z"/>
			<path class="st2" d="M122.4,384.98l-6.71,6.27c-2.4-2-5.93-3.71-9.4-3.71c-2.33,0-5.09,0.78-5.09,2.85c0,1.78,1.69,2.35,6,3.21
				l2.61,0.5c7.99,1.5,13.29,4.78,13.29,11.69c0,9.27-9.75,12.98-17.45,12.98c-9.18,0-15.19-4.28-17.88-7.2l6.86-6.27
				c2.68,2.85,6.78,5.13,10.74,5.13c3.61,0,6.57-1.28,6.57-3.64c0-2.07-1.91-2.64-5.87-3.28l-3.32-0.57
				c-8.76-1.5-12.36-5.35-12.36-11.05c0-6.35,5.23-12.48,15.62-12.48C112.29,379.42,117.95,381.56,122.4,384.98z"/>
			<path class="st2" d="M140.45,376h-10.81v-8.48h10.81V376z M140.45,417.85h-10.81v-37.22h10.81V417.85z"/>
			<path class="st2" d="M173.08,380.63h10.25v36.29c0,9.7-6.29,14.26-18.3,14.26c-9.96,0-16.88-4.06-16.88-12.19v-1.14h11.23
				c0,2.5,1.06,6.06,6.71,6.06c4.03,0,6.43-1.71,6.43-5.92v-5.06c-2.47,1.64-4.73,3.21-9.68,3.21c-6.01,0-15.26-3.49-15.26-17.97
				c0-11.12,6.42-18.18,15.26-18.18c5.37,0,8.27,2.14,10.24,4.06V380.63z M172.52,398.1c0-4.71-0.71-9.91-7.06-9.91
				c-6.29,0-6.64,7.2-6.64,9.55c0,5.28,0.99,10.05,6.92,10.05C172.17,407.79,172.52,401.88,172.52,398.1z"/>
			<path class="st2" d="M225.83,417.85h-10.88v-22.96c0-3.49-0.99-6.42-5.37-6.42c-5.02,0-5.72,3.56-5.72,8.56v20.82h-10.88v-37.22
				H204v3.28c1.76-2.14,5.23-4.21,10.39-4.21c7.49,0,11.44,3.85,11.44,11.41V417.85z"/>
			<path class="st2" d="M320.32,367.51l-12.65,50.34h-12.86l-8.97-32.23l-9.05,32.23h-12.85l-12.65-50.34h12.5l7.35,34.65
				l9.04-34.65h11.09l9.33,34.65l7.28-34.65H320.32z"/>
			<path class="st2" d="M357.24,401.52h-26.35v0.43c0,4.99,3.39,8.84,8.41,8.84c5.15,0,8.19-3.56,9.32-6.63l8.19,4.28
				c-4.17,7.06-10.74,10.77-18.37,10.77c-11.23,0-18.65-7.2-18.65-19.25c0-9.34,4.52-20.46,18.93-20.46
				c13.85,0,18.51,11.19,18.51,21.53V401.52z M330.88,394.68H346c-0.14-4.14-2.9-7.34-7.35-7.34
				C333.5,387.33,331.38,391.68,330.88,394.68z"/>
			<path class="st2" d="M398.42,401.52h-26.35v0.43c0,4.99,3.39,8.84,8.4,8.84c5.16,0,8.2-3.56,9.33-6.63l8.19,4.28
				c-4.17,7.06-10.74,10.77-18.37,10.77c-11.23,0-18.65-7.2-18.65-19.25c0-9.34,4.52-20.46,18.93-20.46
				c13.85,0,18.51,11.19,18.51,21.53V401.52z M372.07,394.68h15.12c-0.14-4.14-2.9-7.34-7.35-7.34
				C374.69,387.33,372.57,391.68,372.07,394.68z"/>
			<path class="st2" d="M441.94,417.85h-12.58l-9.46-16.04l-4.66,4.49v11.55h-10.59v-50.34h10.67v25.88l11.94-12.76h13.07
				l-12.72,13.26L441.94,417.85z"/>
		</g>
		<g>
			<path class="st2" d="M345.27,188.28l-0.37,0l-67.08,0V0l67.02,0l0.05,0l0.36,0c51.5,0,93.19,42.19,93.19,94.14
				C438.46,146.08,396.79,188.28,345.27,188.28z"/>
			<path class="st2" d="M0,0h74.63v188.28H0V0z"/>
			<path class="st2" d="M555.88,56.71L568.12,0h73.96l-40.65,188.28h-45.55V56.71z"/>
			<path class="st2" d="M617.62,188.28L671.82,0h73.44l-54.2,188.28H617.62z"/>
			<path class="st2" d="M461.74,188.28h74.63V0h-74.63V188.28z"/>
			<path class="st2" d="M188.57,137.54l-14.15,0.13v50.61H99.79V0h88.1l0.71,0c37.13,0.37,67.13,31.02,67.13,68.77
				C255.73,106.53,225.72,137.18,188.57,137.54z"/>
		</g>
	</g>
</g>
<g id="TEXTOS_SIN_QR" class="st11">
</g>
<g id="TEXTOS_CON_QR_copia" class="st11">
</g>
<g id="TEXTOS_SIN_QR_copia" class="st11">
</g>
</svg>
