<?xml version="1.0" encoding="utf-8"?>
<!-- Generator: Adobe Illustrator 25.2.0, SVG Export Plug-In . SVG Version: 6.00 Build 0)  -->
<svg version="1.1" xmlns="http://www.w3.org/2000/svg" xmlns:xlink="http://www.w3.org/1999/xlink"  width="100%"
	 viewBox="0 0 918.21 231.98" style="enable-background:new 0 0 918.21 231.98;" xml:space="preserve">
<style type="text/css">
	.st0{fill:#F3E3BB;}
	.st1{fill:#161616;}
	.st2{fill:#141414;}
	.st3{fill:#D83130;}
	.st4{fill:#070706;}
	.st5{fill:#DC5034;}
	.st6{fill:#F3E5BE;}
	.st7{fill:#FFFFFF;}
	.st8{fill:#121212;}
	.st9{fill:#E8B42F;}
	.st10{fill:#080808;}
	.st11{display:none;}
	.st12{display:inline;}
	.st13{display:inline;fill:#F3E5BE;}
	.st14{display:inline;fill:#161616;}
	.st15{display:inline;fill:#DC5034;}
	.st16{fill:#DC4D36;}
</style>
<g id="Layer_2">
</g>
<g id="Layer_3">
</g>
<g id="TEXTOS_CON_QR">
	<g>
		<path class="st2" d="M425.4,231.98l-0.45,0l-82.65,0V0l82.58,0l0.07,0l0.45,0c63.45,0,114.81,51.98,114.81,115.99
			C540.21,179.98,488.88,231.98,425.4,231.98z"/>
		<path class="st2" d="M0,0h91.95v231.98H0V0z"/>
		<path class="st2" d="M684.88,69.87L699.97,0h91.12L741,231.98h-56.12V69.87z"/>
		<path class="st2" d="M760.95,231.98L827.73,0h90.49l-66.78,231.98H760.95z"/>
		<path class="st2" d="M568.9,231.98h91.96V0H568.9V231.98z"/>
		<path class="st2" d="M232.33,169.45l-17.43,0.16v62.36h-91.95V0h108.54l0.88,0c45.75,0.45,82.7,38.21,82.7,84.73
			C315.08,131.25,278.1,169.02,232.33,169.45z"/>
	</g>
</g>
<g id="TEXTOS_SIN_QR" class="st11">
</g>
<g id="TEXTOS_CON_QR_copia" class="st11">
</g>
<g id="TEXTOS_SIN_QR_copia" class="st11">
</g>
</svg>
