<?xml version="1.0" encoding="utf-8"?>
<!-- Generator: Adobe Illustrator 25.2.0, SVG Export Plug-In . SVG Version: 6.00 Build 0)  -->
<svg version="1.1" xmlns="http://www.w3.org/2000/svg" xmlns:xlink="http://www.w3.org/1999/xlink"  width="100%"
	 viewBox="0 0 1082.87 245.58" style="enable-background:new 0 0 1082.87 245.58;" xml:space="preserve">
<style type="text/css">
	.st0{fill:#F3E3BB;}
	.st1{fill:#161616;}
	.st2{fill:#141414;}
	.st3{fill:#D83130;}
	.st4{fill:#070706;}
	.st5{fill:#DC5034;}
	.st6{fill:#F3E5BE;}
	.st7{fill:#FFFFFF;}
	.st8{fill:#121212;}
	.st9{fill:#E8B42F;}
	.st10{fill:#080808;}
	.st11{display:none;}
	.st12{display:inline;}
	.st13{display:inline;fill:#F3E5BE;}
	.st14{display:inline;fill:#161616;}
	.st15{display:inline;fill:#DC5034;}
	.st16{fill:#DC4D36;}
</style>
<g id="Layer_2">
</g>
<g id="Layer_3">
</g>
<g id="TEXTOS_CON_QR">
	<g>
		<path class="st7" d="M0.01,1.14c15.14-0.09,30.3-0.02,45.45-0.05c0,5.72,0,11.45,0,17.16c-8.93,0.02-17.88,0.04-26.8-0.02
			c0.02,3.22,0.04,6.46,0.05,9.7c7.65-0.04,15.3,0,22.95-0.02c0,5.49,0,10.98-0.02,16.47C34,44.32,26.35,44.4,18.7,44.32
			c0,5.94,0,11.9-0.04,17.86c-6.21-0.04-12.44-0.04-18.65-0.02C0,41.82,0,21.48,0.01,1.14z"/>
		<g>
			<path class="st7" d="M111.35,1.82c13.75-4.16,32.13-1.64,39.62,12.06c5.83,11.29,5.81,25.99-0.88,36.92
				c-8.3,12.51-25.74,14.36-39.08,10.33C85.23,53.4,85.64,9.4,111.35,1.82z M118.46,17.9c-7.65,3.19-8.3,13.25-6.41,20.22
				c2.56,9.65,17.82,10.91,22.23,2.16c2.38-5.31,2.41-11.74,0.11-17.07C131.8,17.23,124.08,15.65,118.46,17.9z"/>
		</g>
		<g>
			<path class="st7" d="M204.13,1.09c13.64,0.92,28.05-2.27,41.11,2.7c15.88,6.26,16.72,30.98,2.86,39.87
				c4.05,6.17,8.91,11.84,12.33,18.43c-6.88,0.11-13.73,0.02-20.61,0.07c-3.2-5.15-6.44-10.26-9.76-15.35
				c-1.82,0.02-5.44,0.04-7.25,0.04c-0.04,5.09-0.04,10.21-0.02,15.3c-6.23,0-12.46-0.02-18.67,0.04
				C204.11,41.8,204.09,21.45,204.13,1.09z M222.76,16.94c0.02,4.93,0.04,9.86,0.05,14.81c3.98-0.14,8.06,0.36,11.99-0.56
				c4.37-1.48,5.42-7.09,3.55-10.89C234.71,15.41,227.94,17.32,222.76,16.94z"/>
		</g>
		<g>
			<path class="st7" d="M323.75,1.84c12.02-3.49,26.82-2.39,35.95,7.02c8.53,9.47,9.5,23.78,5.87,35.55
				c-2.99,9.99-12.55,16.85-22.68,18.07c-12.56,2.05-27.97-1.24-34.42-13.36C299.95,33.07,304.38,7.48,323.75,1.84z M330.95,17.84
				c-12.44,5.45-9.09,30.62,6.41,28.23c10.62-0.38,13-13.52,9.92-21.64C345.26,17.77,336.96,15.38,330.95,17.84z"/>
		</g>
		<path class="st7" d="M410.82,39.79c224.01,0.04,448.01-0.05,672.02,0.04c0,9.02-0.02,18.02,0,27.02
			c-223.99,0.02-447.99,0-671.98,0.02C410.84,57.83,410.87,48.81,410.82,39.79z"/>
		<g>
			<path class="st7" d="M647.89,109.81c12.51-2.88,28.14-1.01,36.11,10.17c7.56,11.3,7.7,27.24,0.99,38.97
				c-8.42,13.21-27,14.98-40.7,10.26C619,160.02,621.03,115.5,647.89,109.81z M652.68,126.59c-7.58,3.74-8.19,14.29-5.47,21.35
				c3.44,9.29,19.21,8.93,22.29-0.5c1.73-5.47,1.71-11.93-1.22-16.99C665.08,125.29,657.92,124.45,652.68,126.59z"/>
		</g>
		<path class="st7" d="M753.41,111.79c12.44-5.51,27.02-3.29,39.1,2.21c-1.8,4.82-3.65,9.65-5.58,14.44
			c-8.14-1.78-17.48-5.29-25.24-0.59c-7.97,6.68-6.75,23.46,4.19,26.43c7.76,1.37,15.43-1.28,22.72-3.69
			c2.02,4.7,4.05,9.41,6.01,14.17c-13.01,6.7-29.43,9.86-42.97,2.95c-11.41-5.92-15.23-20.05-13.81-32.02
			C738.46,125.74,744.05,115.84,753.41,111.79z"/>
		<path class="st7" d="M948.62,121.78c1.73-6.8,8.24-11.27,14.89-12.46c11.63-1.91,23.55,0.34,34.54,4.25
			c-1.4,4.77-2.79,9.56-4.18,14.35c-7.45-2.14-15.08-4.36-22.92-4.25c-2.68-0.59-4,3.37-1.8,4.52c7.92,3.71,17.19,4.59,24.21,10.19
			c5.96,5.22,6.25,14.42,3.49,21.37c-2.68,6.66-9.65,10.49-16.51,11.36c-12.15,1.69-24.34-2.02-35.03-7.6
			c2.11-4.81,4.19-9.61,6.28-14.42c7.25,3.2,14.72,6.86,22.84,6.84c2.54-0.14,3.78-1.48,3.73-4c-7.81-4.99-18.11-4.84-25.26-11.12
			C947.47,136.27,946.96,128.21,948.62,121.78z"/>
		<path class="st7" d="M6.53,109.61c6.32-0.04,12.64-0.04,18.96,0c-0.04,20.31,0.05,40.63-0.05,60.95c-6.3,0-12.6,0.02-18.9,0.02
			C6.55,150.26,6.53,129.94,6.53,109.61z"/>
		<path class="st7" d="M77.62,109.58c5.67,0.02,11.34,0.02,17.03,0c7.58,10.13,15.12,20.31,22.56,30.53
			c0.05-10.17,0-20.34,0.02-30.51c6.32,0,12.65,0,18.97-0.02c-0.02,20.34-0.04,40.66,0.02,60.99c-5.74,0.02-11.48,0-17.21,0
			c-7.43-10.13-14.98-20.2-22.47-30.31c0.07,10.1,0.07,20.22,0.02,30.31c-6.32,0.02-12.64,0.02-18.96,0
			C77.65,150.24,77.63,129.9,77.62,109.58z"/>
		<g>
			<path class="st7" d="M188.32,109.6c13.97,0.68,28.71-2.14,42.01,3.4c21.44,8.95,21.51,45.18,0.11,54.2
				c-13.27,5.67-28.06,2.56-42.03,3.4C188.22,150.26,188.38,129.94,188.32,109.6z M207.28,125.49c-0.02,9.72,0.02,19.44-0.02,29.18
				c5.45-0.07,11.68,0.18,15.97-3.83c5.27-5.4,5.35-15.03,0.61-20.79C219.74,125.31,212.98,125.58,207.28,125.49z"/>
		</g>
		<path class="st7" d="M295.03,109.61c6.28-0.04,12.58,0,18.88-0.07c0,20.34,0.02,40.68-0.02,61.01
			c-6.28,0.02-12.58,0.04-18.87,0.04C295.02,150.26,295.02,129.94,295.03,109.61z"/>
		<path class="st7" d="M366.12,109.6c15.46,0,30.91,0,46.37,0c0,5.26,0,10.51,0,15.79c-9.25-0.02-18.49-0.04-27.72,0
			c0.02,2.54,0.02,5.08,0.04,7.63c7.85-0.04,15.71,0,23.58-0.04c0.02,4.88,0.04,9.77,0.04,14.65c-7.87,0.02-15.73,0.04-23.6-0.02
			c-0.02,2.38-0.04,4.77-0.05,7.16c9.54,0.09,19.08,0.04,28.62,0.02c0.02,5.26,0.02,10.51-0.02,15.79c-15.75-0.02-31.5,0-47.25,0
			C366.12,150.24,366.12,129.92,366.12,109.6z"/>
		<g>
			<path class="st7" d="M526.33,109.54c13.68,0.94,28.08-2.16,41.22,2.83c15.79,6.21,16.63,31.02,2.77,39.84
				c4.16,6.07,8.73,11.86,12.33,18.29c-6.89,0.14-13.77,0.07-20.67,0.07c-3.26-5.18-6.5-10.37-9.95-15.41
				c-2.3,0.04-4.57,0.07-6.84,0.11c0.04,5.11,0.04,10.21,0.02,15.32c-6.3,0-12.58-0.02-18.87-0.04
				C526.31,150.23,526.35,129.88,526.33,109.54z M545.21,125.33c0,5.04,0.02,10.08,0,15.12c4.05-0.14,8.26,0.38,12.2-0.83
				c5.47-2.12,5.4-11.29-0.11-13.39C553.42,124.9,549.23,125.47,545.21,125.33z"/>
		</g>
		<path class="st7" d="M842.7,109.6c6.23,0,12.47-0.02,18.72,0.02c0,7.99,0,15.99,0,23.98c6.48-7.99,13.03-15.95,19.5-23.98
			c7.15-0.02,14.31-0.14,21.48,0.16c-6.28,8.8-13.59,16.76-20.25,25.26c7.22,11.75,14.54,23.42,21.49,35.32
			c-7.42,0.38-14.85,0.2-22.27,0.23c-4.09-6.55-8.08-13.16-12.13-19.73c-1.94,2.27-3.92,4.52-5.81,6.84
			c-3.46,3.37-1.53,8.62-2.02,12.87c-6.25,0-12.49,0.02-18.74-0.02C842.72,150.23,842.66,129.92,842.7,109.6z"/>
		<path class="st7" d="M1047.91,109.58c6.62,0.02,13.25,0,19.89,0.02c-0.95,12.92-1.84,25.85-2.75,38.77
			c-4.81,0-9.59-0.02-14.38-0.02C1049.77,135.43,1048.92,122.5,1047.91,109.58z"/>
		<path class="st7" d="M1052.67,155.88c5.09-3.83,14.11-0.36,13.75,6.53c0.72,5.74-5.35,10.51-10.76,8.75
			C1048.8,169.88,1046.94,159.69,1052.67,155.88z"/>
		<path class="st7" d="M3.15,245.58c-0.02-8.8,0-17.59,0-26.37c359.9,0,719.81-0.07,1079.73,0.04c-0.07,8.77-0.04,17.53-0.04,26.3
			C722.94,245.61,363.04,245.56,3.15,245.58z"/>
	</g>
</g>
<g id="TEXTOS_SIN_QR" class="st11">
</g>
<g id="TEXTOS_CON_QR_copia" class="st11">
</g>
<g id="TEXTOS_SIN_QR_copia" class="st11">
</g>
</svg>
