<?xml version="1.0" encoding="utf-8"?>
<!-- Generator: Adobe Illustrator 25.2.0, SVG Export Plug-In . SVG Version: 6.00 Build 0)  -->
<svg version="1.1" xmlns="http://www.w3.org/2000/svg" xmlns:xlink="http://www.w3.org/1999/xlink"  width="100%"
	 viewBox="0 0 1360.54 209.64" style="enable-background:new 0 0 1360.54 209.64;" xml:space="preserve">
<style type="text/css">
	.st0{fill:#F3E3BB;}
	.st1{fill:#161616;}
	.st2{fill:#141414;}
	.st3{fill:#D83130;}
	.st4{fill:#070706;}
	.st5{fill:#DC5034;}
	.st6{fill:#F3E5BE;}
	.st7{fill:#FFFFFF;}
	.st8{fill:#121212;}
	.st9{fill:#E8B42F;}
	.st10{fill:#080808;}
	.st11{display:none;}
	.st12{display:inline;}
	.st13{display:inline;fill:#F3E5BE;}
	.st14{display:inline;fill:#161616;}
	.st15{display:inline;fill:#DC5034;}
	.st16{fill:#DC4D36;}
</style>
<g id="Layer_2">
</g>
<g id="Layer_3">
</g>
<g id="TEXTOS_CON_QR">
	<g>
		<g>
			<path class="st2" d="M13.34,56.75H0v-54h13.34V56.75z"/>
			<path class="st2" d="M59.23,56.75H47.56V32.12c0-3.75-1.06-6.88-5.76-6.88c-5.38,0-6.14,3.82-6.14,9.18v22.34H23.98V16.82h11.82
				v3.52c1.9-2.29,5.61-4.51,11.14-4.51c8.04,0,12.28,4.13,12.28,12.24V56.75z"/>
			<path class="st2" d="M90.27,25.01h-7.73v19.12c0,2.68,1.21,3.29,3.03,3.29c0.83,0,4.09-0.08,4.09-0.08v9.1
				c-0.75,0.15-3.11,0.61-7.35,0.61c-6.37,0-11.29-1.99-11.29-11.32V24.93h-5.76v-7.19h5.76V5.27h11.52v12.54h7.73V25.01z"/>
			<path class="st2" d="M133.82,39.23h-28.27v0.46c0,5.35,3.64,9.49,9.02,9.49c5.53,0,8.79-3.82,10-7.11l8.79,4.59
				c-4.47,7.57-11.52,11.55-19.71,11.55c-12.05,0-20.01-7.73-20.01-20.65c0-10.02,4.85-21.95,20.31-21.95
				c14.86,0,19.86,12.01,19.86,23.1V39.23z M105.55,31.89h16.22c-0.15-4.44-3.11-7.88-7.89-7.88
				C108.35,24.01,106.08,28.68,105.55,31.89z"/>
			<path class="st2" d="M140.49,16.82h11.29v4.13c0.98-0.84,2.04-1.91,4.62-2.98c3.18-1.3,5.38-1.53,6.82-1.61v10.4l-3.87,0.61
				c-6.14,0.99-7.28,2.6-7.28,6.88v22.49h-11.6V16.82z"/>
			<path class="st2" d="M204.39,56.75h-11.67V32.12c0-3.75-1.06-6.88-5.76-6.88c-5.38,0-6.14,3.82-6.14,9.18v22.34h-11.67V16.82
				h11.82v3.52c1.89-2.29,5.61-4.51,11.14-4.51c8.04,0,12.28,4.13,12.28,12.24V56.75z"/>
			<path class="st2" d="M249.45,56.75h-11.44v-3.6c-3.11,2.07-6.07,4.67-12.13,4.67c-9.02,0-12.96-6.43-12.96-12.16
				c0-4.97,3.41-9.41,8.34-11.47c2.73-1.15,6.9-1.99,15.61-3.67V28.3c0-1.38-0.23-4.82-4.47-4.82c-4.93,0-5.83,2.91-6.14,4.67
				h-11.67c0-8.8,8.04-12.39,16.68-12.39c6.82,0,17.05,1.84,17.05,11.47v23.33C248.31,54,248.46,55.3,249.45,56.75z M236.87,37.63
				l-7.5,2.52c-4.02,1.3-5,3.21-5,4.97c0,1.38,1.14,4.05,4.47,4.05c4.55,0,8.03-4.13,8.03-9.79V37.63z"/>
			<path class="st2" d="M279.62,25.01h-7.73v19.12c0,2.68,1.21,3.29,3.03,3.29c0.83,0,4.09-0.08,4.09-0.08v9.1
				c-0.76,0.15-3.11,0.61-7.36,0.61c-6.37,0-11.29-1.99-11.29-11.32V24.93h-5.76v-7.19h5.76V5.27h11.52v12.54h7.73V25.01z"/>
			<path class="st2" d="M297.4,11.85h-11.6v-9.1h11.6V11.85z M297.4,56.75h-11.6V16.82h11.6V56.75z"/>
			<path class="st2" d="M347.65,36.79c0,12.93-8.04,21.19-21.3,21.19c-10.31,0-21.22-5.66-21.22-21.42
				c0-10.1,6.06-20.96,20.85-20.96C342.57,15.6,347.65,27.22,347.65,36.79z M335.83,37.17c0-8.49-3.56-12.24-9.93-12.24
				c-4.4,0-9.02,3.37-9.02,11.7c0,6.65,2.8,11.93,9.63,11.93C332.95,48.57,335.83,43.13,335.83,37.17z"/>
			<path class="st2" d="M390.63,56.75h-11.67V32.12c0-3.75-1.06-6.88-5.76-6.88c-5.38,0-6.14,3.82-6.14,9.18v22.34h-11.67V16.82
				h11.82v3.52c1.89-2.29,5.61-4.51,11.14-4.51c8.03,0,12.28,4.13,12.28,12.24V56.75z"/>
			<path class="st2" d="M435.69,56.75h-11.44v-3.6c-3.11,2.07-6.07,4.67-12.13,4.67c-9.02,0-12.96-6.43-12.96-12.16
				c0-4.97,3.41-9.41,8.34-11.47c2.73-1.15,6.9-1.99,15.62-3.67V28.3c0-1.38-0.23-4.82-4.47-4.82c-4.93,0-5.84,2.91-6.14,4.67
				h-11.67c0-8.8,8.03-12.39,16.67-12.39c6.82,0,17.06,1.84,17.06,11.47v23.33C434.56,54,434.71,55.3,435.69,56.75z M423.11,37.63
				l-7.51,2.52c-4.02,1.3-5,3.21-5,4.97c0,1.38,1.14,4.05,4.47,4.05c4.55,0,8.04-4.13,8.04-9.79V37.63z"/>
			<path class="st2" d="M456.84,56.75h-11.6v-54h11.6V56.75z"/>
			<path class="st2" d="M0,72.04h26.53c12.66,0,19.33,6.04,19.33,18.43c0,13.69-11.9,17.9-21.6,17.9H13.42v17.67H0V72.04z
				 M13.42,81.98v16.37h8.79c6.06,0,10.31-1.45,10.31-8.49c0-7.8-6.37-7.88-10.53-7.88H13.42z"/>
			<path class="st2" d="M50.7,86.11h11.29v4.13c0.99-0.84,2.05-1.91,4.62-2.98c3.18-1.3,5.38-1.53,6.83-1.61v10.4l-3.87,0.61
				c-6.14,0.99-7.28,2.6-7.28,6.88v22.49H50.7V86.11z"/>
			<path class="st2" d="M119,106.08c0,12.93-8.04,21.19-21.3,21.19c-10.31,0-21.22-5.66-21.22-21.42c0-10.1,6.07-20.96,20.85-20.96
				C113.92,84.89,119,96.52,119,106.08z M107.17,106.46c0-8.49-3.56-12.24-9.93-12.24c-4.4,0-9.02,3.37-9.02,11.7
				c0,6.66,2.8,11.93,9.62,11.93C104.29,117.86,107.17,112.43,107.17,106.46z"/>
			<path class="st2" d="M162.05,126.04h-10.61v-3.75c-4.32,4.44-8.42,4.82-10.54,4.82c-9.32,0-17.13-7.27-17.13-20.73
				c0-11.86,5.76-21.34,16.53-21.34c5.53,0,8.94,2.83,10.46,4.05V72.04h11.29V126.04z M135.59,106.31c0,3.52,0.76,12.09,7.51,12.09
				c7.58,0,7.88-10.1,7.88-12.01c0-4.97-0.91-12.54-7.27-12.54C137.49,93.84,135.59,100.65,135.59,106.31z"/>
			<path class="st2" d="M207.65,126.04h-11.67v-3.75c-1.06,1.53-5,4.9-11.52,4.9c-8.72,0-12.43-4.44-12.43-14.3V86.11h11.75v25.63
				c0,2.68,0.91,5.89,5.61,5.89s6.67-2.91,6.67-6.58V86.11h11.6V126.04z"/>
			<path class="st2" d="M243.84,112.05l8.79,4.59c-4.47,7.88-11.52,10.71-17.58,10.71c-9.25,0-19.63-5.97-19.63-20.96
				c0-15.99,10.91-21.42,19.86-21.42c3.56,0,11.37,0.76,16.91,9.64l-8.65,4.97c-1.06-2.22-3.18-5.58-7.73-5.58
				c-6.21,0-8.41,7.19-8.41,12.01c0,5.05,2.35,12.01,8.79,12.01C240.73,118.01,243,114.57,243.84,112.05z"/>
			<path class="st2" d="M279.62,94.3h-7.73v19.12c0,2.68,1.21,3.29,3.03,3.29c0.83,0,4.09-0.08,4.09-0.08v9.1
				c-0.76,0.15-3.11,0.61-7.36,0.61c-6.37,0-11.29-1.99-11.29-11.32V94.22h-5.76v-7.19h5.76V74.56h11.52v12.54h7.73V94.3z"/>
			<path class="st2" d="M297.4,81.14h-11.6v-9.1h11.6V81.14z M297.4,126.04h-11.6V86.11h11.6V126.04z"/>
			<path class="st2" d="M347.65,106.08c0,12.93-8.04,21.19-21.3,21.19c-10.31,0-21.22-5.66-21.22-21.42
				c0-10.1,6.06-20.96,20.85-20.96C342.57,84.89,347.65,96.52,347.65,106.08z M335.83,106.46c0-8.49-3.56-12.24-9.93-12.24
				c-4.4,0-9.02,3.37-9.02,11.7c0,6.66,2.8,11.93,9.63,11.93C332.95,117.86,335.83,112.43,335.83,106.46z"/>
			<path class="st2" d="M390.63,126.04h-11.67v-24.63c0-3.75-1.06-6.88-5.76-6.88c-5.38,0-6.14,3.82-6.14,9.18v22.34h-11.67V86.11
				h11.82v3.52c1.89-2.29,5.61-4.51,11.14-4.51c8.03,0,12.28,4.13,12.28,12.24V126.04z"/>
			<path class="st2" d="M0,195.34v-54h18.34c20.69,0,29.56,9.26,29.56,27c0,12.85-5.53,27-26.83,27H0z M13.49,152.73v31.74h4.32
				c11.52,0,16.67-4.05,16.67-16.29c0-8.41-2.73-15.45-14.4-15.45H13.49z"/>
			<path class="st2" d="M92.74,177.82H64.47v0.46c0,5.35,3.64,9.49,9.02,9.49c5.53,0,8.8-3.82,10.01-7.11l8.79,4.59
				c-4.47,7.57-11.52,11.55-19.71,11.55c-12.05,0-20.01-7.73-20.01-20.65c0-10.02,4.85-21.95,20.31-21.95
				c14.86,0,19.86,12.01,19.86,23.1V177.82z M64.47,170.48h16.22c-0.15-4.44-3.11-7.88-7.89-7.88
				C67.27,162.6,65,167.26,64.47,170.48z"/>
			<path class="st2" d="M131.32,160.07l-7.2,6.73c-2.58-2.14-6.37-3.98-10.08-3.98c-2.5,0-5.46,0.84-5.46,3.06
				c0,1.91,1.82,2.52,6.44,3.44l2.8,0.54c8.57,1.61,14.25,5.13,14.25,12.55c0,9.94-10.46,13.92-18.72,13.92
				c-9.85,0-16.3-4.59-19.18-7.73l7.36-6.73c2.88,3.06,7.28,5.51,11.52,5.51c3.87,0,7.05-1.38,7.05-3.9c0-2.22-2.05-2.83-6.29-3.52
				l-3.56-0.61c-9.4-1.61-13.27-5.74-13.27-11.86c0-6.81,5.61-13.39,16.76-13.39C120.48,154.11,126.54,156.4,131.32,160.07z"/>
			<path class="st2" d="M150.69,150.43h-11.6v-9.1h11.6V150.43z M150.69,195.34h-11.6v-39.93h11.6V195.34z"/>
			<path class="st2" d="M185.7,155.41h10.99v38.94c0,10.4-6.75,15.3-19.63,15.3c-10.69,0-18.11-4.36-18.11-13.08v-1.22H171
				c0,2.68,1.13,6.5,7.2,6.5c4.32,0,6.9-1.84,6.9-6.35v-5.43c-2.65,1.76-5.08,3.44-10.38,3.44c-6.45,0-16.37-3.75-16.37-19.28
				c0-11.93,6.89-19.51,16.37-19.51c5.76,0,8.87,2.29,10.99,4.36V155.41z M185.1,174.15c0-5.05-0.76-10.63-7.58-10.63
				c-6.75,0-7.13,7.73-7.13,10.25c0,5.66,1.06,10.79,7.43,10.79C184.72,184.55,185.1,178.2,185.1,174.15z"/>
			<path class="st2" d="M242.29,195.34h-11.67v-24.63c0-3.75-1.06-6.88-5.76-6.88c-5.38,0-6.14,3.82-6.14,9.18v22.34h-11.67v-39.93
				h11.82v3.52c1.89-2.29,5.61-4.51,11.14-4.51c8.03,0,12.28,4.13,12.28,12.24V195.34z"/>
			<path class="st2" d="M343.67,141.33l-13.57,54h-13.8l-9.62-34.58l-9.71,34.58h-13.79l-13.57-54h13.42l7.88,37.18l9.7-37.18h11.9
				l10.01,37.18l7.81-37.18H343.67z"/>
			<path class="st2" d="M383.28,177.82H355v0.46c0,5.35,3.64,9.49,9.02,9.49c5.53,0,8.79-3.82,10-7.11l8.79,4.59
				c-4.47,7.57-11.52,11.55-19.71,11.55c-12.05,0-20.01-7.73-20.01-20.65c0-10.02,4.85-21.95,20.31-21.95
				c14.86,0,19.86,12.01,19.86,23.1V177.82z M355,170.48h16.22c-0.15-4.44-3.11-7.88-7.88-7.88
				C357.81,162.6,355.53,167.26,355,170.48z"/>
			<path class="st2" d="M427.46,177.82h-28.27v0.46c0,5.35,3.64,9.49,9.02,9.49c5.53,0,8.8-3.82,10.01-7.11l8.79,4.59
				c-4.47,7.57-11.52,11.55-19.71,11.55c-12.05,0-20.01-7.73-20.01-20.65c0-10.02,4.85-21.95,20.31-21.95
				c14.86,0,19.86,12.01,19.86,23.1V177.82z M399.19,170.48h16.22c-0.15-4.44-3.11-7.88-7.89-7.88
				C402,162.6,399.72,167.26,399.19,170.48z"/>
			<path class="st2" d="M474.16,195.34h-13.49l-10.15-17.21l-5,4.82v12.39h-11.37v-54h11.44v27.77l12.81-13.69h14.02l-13.65,14.23
				L474.16,195.34z"/>
		</g>
		<g>
			<path class="st2" d="M931.39,202.01l-0.39,0l-71.97,0V0l71.91,0L931,0l0.39,0c55.25,0,99.98,45.26,99.98,101
				C1031.37,156.73,986.67,202.01,931.39,202.01z"/>
			<path class="st2" d="M560.95,0h80.07v202.01h-80.07V0z"/>
			<path class="st2" d="M1157.35,60.84L1170.49,0h79.35l-43.62,202.01h-48.87V60.84z"/>
			<path class="st2" d="M1223.59,202.01L1281.74,0h78.8l-58.15,202.01H1223.59z"/>
			<path class="st2" d="M1056.35,202.01h80.08V0h-80.08V202.01z"/>
			<path class="st2" d="M763.27,147.56l-15.18,0.14v54.3h-80.07V0h94.52l0.77,0c39.84,0.4,72.02,33.28,72.02,73.78
				C835.32,114.3,803.13,147.18,763.27,147.56z"/>
		</g>
	</g>
	<g>
		<g>
			<path class="st2" d="M806.03,116.93c4.57,1.81,9.15,3.63,13.72,5.44c1.22,0.48,2.8-0.53,3.08-1.75c0.33-1.44-0.44-2.56-1.75-3.08
				c-4.57-1.81-9.15-3.63-13.72-5.44c-1.22-0.48-2.8,0.53-3.08,1.75C803.95,115.29,804.72,116.41,806.03,116.93L806.03,116.93z"/>
		</g>
	</g>
</g>
<g id="TEXTOS_SIN_QR" class="st11">
</g>
<g id="TEXTOS_CON_QR_copia" class="st11">
</g>
<g id="TEXTOS_SIN_QR_copia" class="st11">
</g>
</svg>
