<?xml version="1.0" encoding="utf-8"?>
<!-- Generator: Adobe Illustrator 25.2.0, SVG Export Plug-In . SVG Version: 6.00 Build 0)  -->
<svg version="1.1" xmlns="http://www.w3.org/2000/svg" xmlns:xlink="http://www.w3.org/1999/xlink"  width="100%"
	 viewBox="0 0 446.71 446.71" style="enable-background:new 0 0 446.71 446.71;" xml:space="preserve">
<style type="text/css">
	.st0{fill:#F3E3BB;}
	.st1{fill:#161616;}
	.st2{fill:#141414;}
	.st3{fill:#D83130;}
	.st4{fill:#070706;}
	.st5{fill:#DC5034;}
	.st6{fill:#F3E5BE;}
	.st7{fill:#FFFFFF;}
	.st8{fill:#121212;}
	.st9{fill:#E8B42F;}
	.st10{fill:#080808;}
	.st11{display:none;}
	.st12{display:inline;}
	.st13{display:inline;fill:#F3E5BE;}
	.st14{display:inline;fill:#161616;}
	.st15{display:inline;fill:#DC5034;}
	.st16{fill:#DC4D36;}
</style>
<g id="Layer_2">
</g>
<g id="Layer_3">
</g>
<g id="TEXTOS_CON_QR">
	<g>
		<g>
			<path class="st4" d="M63.33,0h319.69c15.04,0.7,29.74,6.68,40.98,16.73c13.4,11.7,21.79,28.86,22.72,46.64v319.54
				c-0.71,15.49-7.03,30.61-17.55,41.98c-11.71,12.96-28.62,21-46.08,21.82H63.41c-15.36-0.82-30.31-7.12-41.59-17.55
				C8.87,417.45,0.8,400.56,0,383.1V63.35c0.87-16.98,8.56-33.41,20.97-45.01C32.33,7.46,47.6,0.84,63.33,0z M109.51,53.87
				c-17.68,2.39-34.05,12.5-44.3,27.08c-7.78,10.92-12.03,24.3-11.99,37.71c-0.01,69.81-0.01,139.62,0,209.43
				c-0.05,15.71,5.85,31.34,16.27,43.09c12.37,14.23,31.11,22.63,49.98,22.31c66.03,0,132.05,0,198.08,0
				c5.85-0.08,11.71,0.24,17.54-0.39c16.76-1.74,32.66-10.34,43.33-23.37c9.68-11.58,15.09-26.6,15.05-41.68
				c0-70.1,0.03-140.2-0.01-210.3c-0.12-20.4-10.58-40.32-27.16-52.16c-11.02-8.02-24.6-12.4-38.23-12.37
				c-69.51-0.02-139.03,0-208.54-0.01C116.19,53.21,112.84,53.39,109.51,53.87z"/>
		</g>
		<g>
			<path class="st4" d="M111.25,80.14c3.31-0.69,6.69-0.75,10.06-0.75c69.21,0.04,138.42-0.05,207.63,0.05
				c16.07,0.09,31.19,11.26,36.23,26.48c2.74,7.43,2.09,15.45,2.16,23.22c-0.01,66.31,0.03,132.62-0.02,198.93
				c0.2,16.18-10.74,31.63-26,36.94c-6.45,2.45-13.44,2.41-20.23,2.31c-65.72,0-131.43,0-197.16,0c-4.94,0.03-9.96,0.11-14.75-1.23
				c-12.49-2.98-23.08-12.6-27.39-24.67c-1.8-4.82-2.46-9.99-2.37-15.11c0.03-69.5-0.05-139.01,0.03-208.52
				C79.49,99.8,93.56,83.24,111.25,80.14z M311.65,105.8c-13.34,1.4-24.06,14.4-22.77,27.79c0.61,14.23,14.56,25.98,28.7,24.18
				c13.94-1.05,25.21-14.81,23.41-28.69C339.9,114.92,325.72,103.6,311.65,105.8z M212.48,132.4
				c-25.63,2.92-49.57,17.41-64.25,38.61c-12.08,17.14-17.89,38.53-16.19,59.42c1.53,20.97,10.68,41.23,25.29,56.33
				c13.75,14.39,32.3,24.11,51.97,27.12c19.27,3.02,39.5-0.31,56.72-9.48c20.43-10.71,36.5-29.43,43.95-51.26
				c7.02-20.22,6.6-42.9-1.2-62.84c-8.03-20.83-23.97-38.45-43.87-48.55C248.88,133.48,230.36,130.25,212.48,132.4z"/>
		</g>
		<path class="st4" d="M214.2,158.57c14.63-2.09,29.96,0.94,42.62,8.59c11.53,6.86,20.86,17.35,26.31,29.62
			c5.41,12.07,6.97,25.8,4.49,38.78c-2.73,14.62-10.71,28.17-22.08,37.75c-11.21,9.55-25.74,15.09-40.46,15.44
			c-14.85,0.45-29.77-4.42-41.51-13.51c-10.57-8.09-18.61-19.46-22.61-32.17c-5.16-16.14-3.7-34.27,4.05-49.35
			C174.45,174.99,193.36,161.35,214.2,158.57z"/>
	</g>
</g>
<g id="TEXTOS_SIN_QR" class="st11">
</g>
<g id="TEXTOS_CON_QR_copia" class="st11">
</g>
<g id="TEXTOS_SIN_QR_copia" class="st11">
</g>
</svg>
