<?xml version="1.0" encoding="utf-8"?>
<!-- Generator: Adobe Illustrator 25.2.0, SVG Export Plug-In . SVG Version: 6.00 Build 0)  -->
<svg version="1.1" xmlns="http://www.w3.org/2000/svg" xmlns:xlink="http://www.w3.org/1999/xlink"  width="100%" height="100%"
	 viewBox="0 0 939.42 272.58" style="enable-background:new 0 0 939.42 272.58;" xml:space="preserve">
<style type="text/css">
	.st0{fill:#F3E3BB;}
	.st1{fill:#161616;}
	.st2{fill:#141414;}
	.st3{fill:#D83130;}
	.st4{fill:#070706;}
	.st5{fill:#DC5034;}
	.st6{fill:#F3E5BE;}
	.st7{fill:#FFFFFF;}
	.st8{fill:#121212;}
	.st9{fill:#E8B42F;}
	.st10{fill:#080808;}
	.st11{fill:#F2E3BB;}
	.st12{display:none;}
	.st13{display:inline;}
	.st14{display:inline;fill:#F3E5BE;}
	.st15{display:inline;fill:#161616;}
	.st16{display:inline;fill:#DC5034;}
	.st17{fill:#DC4D36;}
	.st18{fill:#F2E4BC;}
</style>
<g id="Layer_2">
</g>
<g id="Layer_3">
</g>
<g id="TEXTOS_CON_QR">
</g>
<g id="TEXTOS_SIN_QR" class="st12">
</g>
<g id="TEXTOS_CON_QR_copia" class="st12">
</g>
<g id="TEXTOS_SIN_QR_copia">
	<g>
		<path class="st2" d="M939.42,28.36C834.09,18.9,728.76,9.45,623.43,0c-11.6,6.19-23.19,12.38-34.79,18.57H0l7.77,254.02
			l910.93-30.62L939.42,28.36z"/>
		<polygon class="st18" points="25.6,230.75 52.78,233.93 50.63,254.84 28.1,259.85 		"/>
		<polygon class="st18" points="89.61,230.75 113.21,230.75 113.21,252.34 91.75,254.13 		"/>
		<polygon class="st18" points="148.26,230.75 146.11,254.13 164.35,254.13 169.35,230.75 		"/>
		<polygon class="st18" points="765.74,206.07 767.89,230.75 793.64,228.96 793.64,206.07 		"/>
		<polygon class="st18" points="819.38,198.56 821.17,220.85 849.78,220.85 846.56,198.56 		"/>
		<polygon class="st18" points="879.46,198.56 881.96,215.06 904.14,215.06 904.14,195.7 		"/>
	</g>
</g>
</svg>
