<?xml version="1.0" encoding="utf-8"?>
<!-- Generator: Adobe Illustrator 25.2.0, SVG Export Plug-In . SVG Version: 6.00 Build 0)  -->
<svg version="1.1" xmlns="http://www.w3.org/2000/svg" xmlns:xlink="http://www.w3.org/1999/xlink" x="0px" y="0px"
	 viewBox="0 0 936.8 87.21" style="enable-background:new 0 0 936.8 87.21;" xml:space="preserve">
<style type="text/css">
	.st0{fill:#F3E3BB;}
	.st1{fill:#161616;}
	.st2{fill:#141414;}
	.st3{fill:#D83130;}
	.st4{fill:#070706;}
	.st5{fill:#DC5034;}
	.st6{fill:#F3E5BE;}
	.st7{fill:#FFFFFF;}
	.st8{fill:#121212;}
	.st9{fill:#E8B42F;}
	.st10{fill:#080808;}
	.st11{fill:#F2E3BB;}
	.st12{display:none;}
	.st13{display:inline;}
	.st14{display:inline;fill:#F3E5BE;}
	.st15{display:inline;fill:#161616;}
	.st16{display:inline;fill:#DC5034;}
	.st17{fill:#DC4D36;}
</style>
<g id="Layer_2">
</g>
<g id="Layer_3">
</g>
<g id="TEXTOS_CON_QR">
	<g>
		<polygon class="st1" points="811.26,0 735.56,8.48 0,7.48 5.84,87.21 936.8,87.21 890.59,7.27 		"/>
		<polygon class="st6" points="510.97,42.82 538.14,46.01 536,66.92 513.47,71.92 		"/>
		<polygon class="st6" points="574.98,42.82 598.58,42.82 598.58,64.41 577.12,66.2 		"/>
		<polygon class="st6" points="633.62,42.82 631.48,66.2 649.72,66.2 654.72,42.82 		"/>
		<polygon class="st6" points="683.33,39.74 685.48,64.41 711.22,62.63 711.22,39.74 		"/>
		<polygon class="st6" points="736.97,32.23 738.76,54.51 767.37,54.51 764.15,32.23 		"/>
		<polygon class="st6" points="797.05,32.23 799.55,48.72 821.72,48.72 821.72,29.37 		"/>
	</g>
</g>
<g id="TEXTOS_SIN_QR" class="st12">
</g>
<g id="TEXTOS_CON_QR_copia" class="st12">
</g>
<g id="TEXTOS_SIN_QR_copia" class="st12">
</g>
</svg>
