<?xml version="1.0" encoding="utf-8"?>
<!-- Generator: Adobe Illustrator 25.2.0, SVG Export Plug-In . SVG Version: 6.00 Build 0)  -->
<svg version="1.1" 
xmlns="http://www.w3.org/2000/svg"
 xmlns:xlink="http://www.w3.org/1999/xlink"
      width="100%"
	  height="100%"
	 viewBox="0 0 568.53 369.76"
	  style="enable-background:new 0 0 568.53 369.76;" xml:space="preserve">
<style type="text/css">
	.st0{fill:#F3E3BB;}
	.st1{fill:#161616;}
	.st2{fill:#141414;}
	.st3{fill:#D83130;}
	.st4{fill:#070706;}
	.st5{fill:#DC5034;}
	.st6{fill:#F3E5BE;}
	.st7{fill:#FFFFFF;}
	.st8{fill:#121212;}
	.st9{fill:#E8B42F;}
	.st10{fill:#080808;}
	.st11{fill:#F2E3BB;}
	.st12{display:none;}
	.st13{display:inline;}
	.st14{display:inline;fill:#F3E5BE;}
	.st15{display:inline;fill:#161616;}
	.st16{display:inline;fill:#DC5034;}
	.st17{fill:#DC4D36;}
</style>
<g id="Layer_2">
</g>
<g id="Layer_3">
</g>
<g id="TEXTOS_CON_QR">
	<g>
		<path class="st8" d="M568.53,11.29C526.59,7.53,386.04,3.76,344.1,0c-4.62,2.46-9.24,4.93-13.85,7.39H0l3.09,362.36l557.19-12.19
			L568.53,11.29z"/>
		<polygon class="st11" points="11.22,353.44 22.04,354.71 21.19,363.04 12.22,365.03 		"/>
		<polygon class="st11" points="36.71,353.44 46.11,353.44 46.11,362.04 37.56,362.75 		"/>
		<polygon class="st11" points="60.06,353.44 59.21,362.75 66.47,362.75 68.46,353.44 		"/>
		<polygon class="st11" points="496.06,14.88 496.92,24.7 507.17,23.99 507.17,14.88 		"/>
		<polygon class="st11" points="521.32,15.35 522.03,24.22 533.42,24.22 532.14,15.35 		"/>
		<polygon class="st11" points="548.54,18.04 549.54,24.61 558.36,24.61 558.36,16.9 		"/>
	</g>
</g>
<g id="TEXTOS_SIN_QR" class="st12">
</g>
<g id="TEXTOS_CON_QR_copia" class="st12">
</g>
<g id="TEXTOS_SIN_QR_copia" class="st12">
</g>
</svg>
