<?xml version="1.0" encoding="utf-8"?>
<!-- Generator: Adobe Illustrator 25.2.0, SVG Export Plug-In . SVG Version: 6.00 Build 0)  -->
<svg version="1.1" xmlns="http://www.w3.org/2000/svg" xmlns:xlink="http://www.w3.org/1999/xlink"  width="100%"
	 viewBox="0 0 901.76 128.95" style="enable-background:new 0 0 901.76 128.95;" xml:space="preserve">
<style type="text/css">
	.st0{fill:#F3E3BB;}
	.st1{fill:#161616;}
	.st2{fill:#141414;}
	.st3{fill:#D83130;}
	.st4{fill:#070706;}
	.st5{fill:#DC5034;}
	.st6{fill:#F3E5BE;}
	.st7{fill:#FFFFFF;}
	.st8{fill:#121212;}
	.st9{fill:#E8B42F;}
	.st10{fill:#080808;}
	.st11{display:none;}
	.st12{display:inline;}
	.st13{display:inline;fill:#F3E5BE;}
	.st14{display:inline;fill:#161616;}
	.st15{display:inline;fill:#DC5034;}
	.st16{fill:#DC4D36;}
</style>
<g id="Layer_2">
</g>
<g id="Layer_3">
</g>
<g id="TEXTOS_CON_QR">
	<path class="st1" d="M0,0l467,10.13L473.45,0l428.31,16.58L870.44,119.9c-9.2,0.11-27.61,0.32-27.61,0.32l-0.23-6.53l-24.41-1.24
		l0.97,7.49l-33.43,0.95c-0.11,0-0.07-9.17-0.17-9.16c-0.02,0-26.59-1.69-26.59-1.69L759,121.2c0,0-17.22,0.2-25.83,0.3l-0.06-7.36
		l-26.83-0.48l0.22,8.15l-30.2,0.31l1.93-6.53l-20.79,0.24l-0.24,7.01c0,0-453.58,3.81-651.83,6.11C3.58,85.97,1.79,42.98,0,0z"/>
</g>
<g id="TEXTOS_SIN_QR" class="st11">
</g>
<g id="TEXTOS_CON_QR_copia" class="st11">
</g>
<g id="TEXTOS_SIN_QR_copia" class="st11">
</g>
</svg>
