<?xml version="1.0" encoding="utf-8"?>
<!-- Generator: Adobe Illustrator 25.2.0, SVG Export Plug-In . SVG Version: 6.00 Build 0)  -->
<svg version="1.1" xmlns="http://www.w3.org/2000/svg" xmlns:xlink="http://www.w3.org/1999/xlink"  width="100%"
	 viewBox="0 0 440.01 440.01" style="enable-background:new 0 0 440.01 440.01;" xml:space="preserve">
<style type="text/css">
	.st0{fill:#F3E3BB;}
	.st1{fill:#161616;}
	.st2{fill:#141414;}
	.st3{fill:#D83130;}
	.st4{fill:#070706;}
	.st5{fill:#DC5034;}
	.st6{fill:#F3E5BE;}
	.st7{fill:#FFFFFF;}
	.st8{fill:#121212;}
	.st9{fill:#E8B42F;}
	.st10{fill:#080808;}
	.st11{display:none;}
	.st12{display:inline;}
	.st13{display:inline;fill:#F3E5BE;}
	.st14{display:inline;fill:#161616;}
	.st15{display:inline;fill:#DC5034;}
	.st16{fill:#DC4D36;}
</style>
<g id="Layer_2">
</g>
<g id="Layer_3">
</g>
<g id="TEXTOS_CON_QR">
	<g>
		<path class="st4" d="M36.96,3.39C43.66,0.84,50.88-0.06,58.02,0c108.33,0.01,216.66-0.01,324.99,0.01
			c15.48-0.27,30.97,6.11,41.56,17.44c10.07,10.48,15.64,25,15.42,39.51c0.02,108.68,0.02,217.35,0,326.03
			c0.21,14.03-4.95,28.08-14.42,38.47c-10.38,11.68-25.85,18.53-41.46,18.51c-31.4,0.06-62.8,0.02-94.2,0.02
			c-0.02-61.01-0.02-122.03,0-183.05c18.09-0.01,36.19-0.02,54.29,0.01c2.32-24.42,4.47-48.85,6.72-73.27
			c-19.4-0.07-38.81,0.08-58.21-0.08c0.06-9.87-0.03-19.74,0.04-29.61c0.03-4.77,1.32-9.89,4.97-13.2c3.28-3.06,7.93-4.03,12.3-3.99
			c13.32,0,26.64,0,39.96,0c0.03-20.91,0.01-41.82,0-62.73c-14.65-0.01-29.31-0.14-43.96-0.15c-12.25-0.14-24.69-0.44-36.65,2.66
			c-14.36,3.32-27.82,11.21-36.89,22.94c-10.94,13.97-15.71,31.94-16.07,49.47c-0.09,11.54-0.03,23.09-0.03,34.64
			c-12.11,0.09-24.21,0-36.32,0.04c-0.01,24.42-0.01,48.84,0,73.26c12.21,0.06,24.42-0.1,36.63,0.08
			c-0.03,60.99-0.03,121.98-0.01,182.96c-53.56,0.05-107.13,0.04-160.7,0.01c-16.09,0.05-31.97-7.27-42.41-19.5
			c-8.93-10.26-13.76-23.86-13.56-37.44C-0.01,274.67,0.01,166.3,0,57.93c-0.08-7.24,0.92-14.53,3.49-21.32
			C9.05,21.33,21.64,8.83,36.96,3.39z"/>
	</g>
</g>
<g id="TEXTOS_SIN_QR" class="st11">
</g>
<g id="TEXTOS_CON_QR_copia" class="st11">
</g>
<g id="TEXTOS_SIN_QR_copia" class="st11">
</g>
</svg>
