<?xml version="1.0" encoding="utf-8"?>
<!-- Generator: Adobe Illustrator 25.2.0, SVG Export Plug-In . SVG Version: 6.00 Build 0)  -->
<svg version="1.1" xmlns="http://www.w3.org/2000/svg" xmlns:xlink="http://www.w3.org/1999/xlink"  width="100%"
	 viewBox="0 0 838.45 161.71" style="enable-background:new 0 0 838.45 161.71;" xml:space="preserve">
<style type="text/css">
	.st0{fill:#F3E3BB;}
	.st1{fill:#161616;}
	.st2{fill:#141414;}
	.st3{fill:#D83130;}
	.st4{fill:#070706;}
	.st5{fill:#DC5034;}
	.st6{fill:#F3E5BE;}
	.st7{fill:#FFFFFF;}
	.st8{fill:#121212;}
	.st9{fill:#E8B42F;}
	.st10{fill:#080808;}
	.st11{display:none;}
	.st12{display:inline;}
	.st13{display:inline;fill:#F3E5BE;}
	.st14{display:inline;fill:#161616;}
	.st15{display:inline;fill:#DC5034;}
	.st16{fill:#DC4D36;}
</style>
<g id="Layer_2">
</g>
<g id="Layer_3">
</g>
<g id="TEXTOS_CON_QR">
	<g>
		<g>
			<path class="st9" d="M613.94,0.48c7.84-2.34,16.77,4.23,15.68,12.6c0.64,9.95-12.67,15.36-20.04,9.48
				C601.46,16.94,604.12,2.46,613.94,0.48z"/>
			<g>
				<path class="st9" d="M98.64,2.29c4.79-2.63,10.62-0.62,14.07,3.25c14.87,14.87,29.75,29.73,44.6,44.62
					c4.86,4.19,3.58,11.85-0.38,16.23c-7.46,8.84-16.08,16.63-24.43,24.61c-22.09,22.02-44.05,44.16-66.2,66.13
					c-4.32,4.92-12.56,6.7-17.21,1.2c-15.32-15.57-31.38-30.4-46.54-46.14c-4.86-5.23-2.05-13.38,2.63-17.72
					C35.43,64.16,65.62,33.75,96.33,3.91C96.91,3.51,98.05,2.71,98.64,2.29z M16.79,96.86C14.25,99.41,12,102.2,9.73,105
					c15.9,15.52,31.06,31.78,47.41,46.81c20.13-19.88,39.77-40.24,60.25-59.74C128.4,80.67,140.2,70,150.68,58.09
					c-15.63-15.77-31.38-31.4-47.05-47.12C74.19,39.09,46.23,68.75,16.79,96.86z"/>
			</g>
			<path class="st9" d="M565.12,126.92c0.04-41.91-0.07-83.82,0.05-125.74c6.79,0.05,13.58,0.04,20.37,0.04
				c-0.05,41.93,0.11,83.84-0.09,125.77C578.68,126.89,571.9,126.91,565.12,126.92z"/>
			<path class="st9" d="M96.6,24.33c2.09-3.7,6.44-1.91,9.4-0.54c-0.42,2.65,0.49,6.3-2.63,7.64C99.27,34.31,93.59,28.4,96.6,24.33z
				"/>
			<path class="st9" d="M109.8,33.91c5.95-3.68,11.05,6.37,4.59,8.93C108.73,45.97,104.06,36.38,109.8,33.91z"/>
			<path class="st9" d="M668.98,47.15c8.33-8.39,19.82-13.87,31.77-13.76c8.1-0.16,16.92,1.62,22.8,7.61
				c5.46,5.52,7.33,13.58,7.22,21.13c0,21.58-0.07,43.15,0.04,64.73c-6.83,0.09-13.65,0.07-20.48,0.05
				c-0.02-19.79,0.04-39.59,0-59.37c0.31-7.02-4.32-14.3-11.49-15.56c-11.2-2.9-22.6,2.83-29.86,11.18
				c0.13,21.26,0.02,42.49,0.05,63.75c-6.81,0.02-13.61,0.02-20.42,0.02c0.11-30.44-0.2-60.9,0.16-91.32
				c6.75,0.15,13.5,0.13,20.28,0.11C669.03,39.52,669.02,43.34,668.98,47.15z"/>
			<g>
				<path class="st9" d="M755.27,52.9c14.34-22.16,49.06-26.34,68.32-8.39c11.78,10.96,15.57,27.83,14.74,43.38
					c-23.51,0.07-47.01-0.15-70.5,0.11c1.67,9.31,7.22,18.28,16.25,21.96c13.09,5.55,28.55,1.4,39.04-7.62
					c3.09,4.5,6.23,8.97,9.22,13.56c-14.81,12.58-36.19,16.48-54.62,10.6c-12.25-3.9-22.56-13.43-27.28-25.41
					C744.36,85.5,745.73,66.84,755.27,52.9z M773.84,58.75c-3.65,4.05-5.01,9.46-6.26,14.61c17.17,0.05,34.34,0.04,51.51,0
					c-1.02-4.34-1.94-8.82-4.45-12.58C806.08,47.22,783.75,46.18,773.84,58.75z"/>
			</g>
			<path class="st9" d="M606.86,126.92c0.04-30.42-0.07-60.84,0.07-91.25c6.77,0.05,13.56,0.04,20.35,0.04
				c0.02,30.4-0.02,60.79,0.02,91.19C620.48,126.92,613.67,126.92,606.86,126.92z"/>
			<path class="st9" d="M119.36,46.73c3.1-5.5,12.43,0.02,8.55,5.35C124.86,57.84,115.24,52.25,119.36,46.73z"/>
			<path class="st9" d="M131.33,57.18c4.17-4.97,12.25,2.69,7.17,7.02C134.3,69.31,126.28,61.4,131.33,57.18z"/>
			<path class="st9" d="M69.36,69.18c7.1-0.64,14.27-0.49,21.36-0.16c0.67,0.56,2,1.69,2.65,2.25c0.47,7.13,0.42,14.34,0.07,21.49
				c-1.43,4.07-7.88,3.74-9.28-0.15c-0.2-1.67-0.6-4.99-0.8-6.66c-5.32,5.37-10.35,11.07-16.16,15.92
				c-4.21,1.52-8.13-2.45-6.59-6.61c4.79-5.88,10.6-10.84,15.9-16.25C70.45,80.87,63.48,74.14,69.36,69.18z"/>
		</g>
		<g>
			<g>
				<path class="st10" d="M210.99,45.95c7.01-7.3,16.52-12.65,26.86-12.56c13.52-0.71,27.41,5.97,34.27,17.84
					c8.8,15.19,9.38,34.22,4.28,50.73c-4.43,14.41-17.64,25.9-32.87,26.97c-12.2,1.78-24.25-3.72-32.46-12.56
					c0.16,15.01,0.04,30.02,0.05,45.03c-8.15,0-16.32,0-24.47,0c-0.04-41.89-0.02-83.79-0.02-125.7c8.19-0.02,16.37-0.02,24.54,0.02
					C211.16,39.12,211.09,42.54,210.99,45.95z M225.92,55.75c-5.54,1.38-10.82,4.37-14.36,8.89c-0.69,10.98-0.71,22.13,0.02,33.09
					c7.33,9.08,21.75,13.05,31.84,6.17c11.65-7.81,13.7-24.94,7.7-36.88C246.72,57.87,235.63,53.23,225.92,55.75z"/>
			</g>
			<g>
				<path class="st10" d="M291.66,47.56c15.05-12.83,36.21-16.9,55.29-12.62c8.59,2,17.04,6.84,21.26,14.87
					c3.36,5.9,4.16,12.82,4.08,19.49c-0.09,19.2,0,38.41-0.05,57.61c-8.17,0-16.35,0-24.52-0.02c0.04-3.01,0.09-6.01,0.15-9
					c-12.82,12.92-35.5,15.43-50.06,4.03c-15.03-11.49-14.25-38.66,2.7-48.05c14.85-8.04,34.89-5.7,47.41,5.74
					c-0.31-7.39,1.22-17.01-6.12-21.62c-12.87-8.04-29.82-2.61-40.35,6.97C298.18,59.16,294.87,53.39,291.66,47.56z M323.75,86.19
					c-9.02,1.07-15.7,11.96-9.95,19.86c8.15,9.71,24.85,7.84,33.31-0.58c1.13-4.01,0.93-8.37,0.16-12.43
					C341.41,86.79,331.98,84.63,323.75,86.19z"/>
			</g>
			<path class="st10" d="M410.23,35.15c17.61-4.52,37.12-0.51,51.48,10.67c-3.29,5.79-6.63,11.56-9.87,17.39
				c-8.82-7.53-20.82-12.36-32.49-10.04c-4.47,0.74-8.86,3.81-9.13,8.71c1.94,4.07,6.68,5.05,10.6,6.14
				c11.6,2.72,24.25,3.81,34.16,11.07c12.63,9.02,12.94,29.79,1.58,39.97c-7.57,6.83-17.93,9.48-27.88,10.02
				c-16.06,0.78-32.84-3.5-45.23-14.07c3.54-5.94,7.08-11.85,10.69-17.75c10.66,8.33,24.32,14.47,38.1,11.93
				c4.36-0.62,9.11-3.94,8.59-8.86c0.07-4.05-4.47-5.41-7.53-6.57c-12.42-3.78-26.41-3.9-37.21-11.89
				c-9.33-6.63-11.42-20.2-6.97-30.28C392.91,43.03,401.33,37.38,410.23,35.15z"/>
			<path class="st10" d="M495.89,35.31c17.81-4.85,37.57-0.73,52.22,10.47c-3.32,5.77-6.63,11.54-9.95,17.32
				c-8.17-6.95-18.86-11.24-29.68-10.44c-4.76,0.44-10.11,2.6-11.76,7.5c-0.47,3.98,3.54,5.81,6.66,6.79
				c12.47,3.72,26.43,3.98,37.39,11.74c12.51,8.49,13.7,28.46,3.38,39.1c-7.35,7.64-18.17,10.58-28.46,11.24
				c-16.25,0.98-33.36-3.27-45.81-14.09c3.54-5.9,7.06-11.8,10.62-17.68c9.87,7.84,22.33,13.45,35.18,12.4
				c4.7-0.36,10.58-2.45,11.53-7.75c1.29-4.3-3.36-6.9-6.79-7.91c-12.85-4.01-27.46-4.03-38.55-12.54
				c-8.48-6.3-10.2-18.3-7.21-27.86C477.95,44.32,486.56,37.76,495.89,35.31z"/>
		</g>
	</g>
</g>
<g id="TEXTOS_SIN_QR" class="st11">
</g>
<g id="TEXTOS_CON_QR_copia" class="st11">
</g>
<g id="TEXTOS_SIN_QR_copia" class="st11">
</g>
</svg>
